<svg width="211" height="41" viewBox="0 0 211 41" fill="none" xmlns="http://www.w3.org/2000/svg">
<path d="M134 41C145.046 41 154 32.0457 154 21C154 9.95431 145.046 1 134 1C122.954 1 114 9.95431 114 21C114 32.0457 122.954 41 134 41Z" fill="#D9D9D9"/>
<path d="M121.449 21.9783C123.787 20.6905 126.396 19.6156 128.835 18.5353C133.03 16.7658 137.242 15.0269 141.496 13.4081C142.324 13.1323 143.811 12.8626 143.957 14.0892C143.877 15.8255 143.549 17.5517 143.323 19.2779C142.751 23.0739 142.09 26.8569 141.446 30.6404C141.224 31.9007 139.645 32.553 138.635 31.7465C136.207 30.1067 133.761 28.4828 131.364 26.805C130.579 26.0073 131.307 24.8617 132.008 24.292C134.008 22.3215 136.128 20.6473 138.023 18.575C138.534 17.3407 137.024 18.3809 136.526 18.6997C133.789 20.586 131.118 22.5875 128.232 24.2454C126.758 25.0569 125.04 24.3634 123.566 23.9106C122.245 23.3636 120.309 22.8125 121.448 21.9784L121.449 21.9783Z" fill="black"/>
<circle cx="134" cy="21" r="19.5" stroke="#488AEA"/>
<path d="M171 21C171 9.9543 179.954 1 191 1C202.046 1 211 9.9543 211 21C211 32.0457 202.046 41 191 41C179.954 41 171 32.0457 171 21Z" fill="#D9D9D9"/>
<path d="M201.221 16.061C200.976 15.1185 200.253 14.3763 199.335 14.1245C197.671 13.6667 191 13.6667 191 13.6667C191 13.6667 184.329 13.6667 182.665 14.1245C181.747 14.3763 181.024 15.1185 180.779 16.061C180.333 17.7692 180.333 21.3334 180.333 21.3334C180.333 21.3334 180.333 24.8974 180.779 26.6057C181.024 27.5482 181.747 28.2904 182.665 28.5424C184.329 29 191 29 191 29C191 29 197.671 29 199.335 28.5424C200.253 28.2904 200.976 27.5482 201.221 26.6057C201.667 24.8974 201.667 21.3334 201.667 21.3334C201.667 21.3334 201.667 17.7692 201.221 16.061" fill="black"/>
<path d="M189 25V18.3333L194.333 21.6668L189 25Z" fill="#D9D9D9"/>
<circle cx="191" cy="21" r="19.5" stroke="#488AEA"/>
<path d="M40 21C40 9.95313 31.0469 1 20 1C8.95313 1 0 9.95313 0 21C0 30.9844 7.3125 39.2578 16.875 40.7578V26.7812H11.7969V21H16.875V16.5938C16.875 11.582 19.8594 8.8125 24.4297 8.8125C26.6172 8.8125 28.9062 9.20312 28.9062 9.20312V14.125H26.3828C23.8984 14.125 23.125 15.668 23.125 17.25V21H28.6719L27.7852 26.7812H23.125V40.7578C32.6875 39.2578 40 30.9844 40 21Z" fill="#DFDFDF"/>
<path d="M27.7852 26.7812L28.6719 21H23.125V17.25C23.125 15.668 23.8984 14.125 26.3828 14.125H28.9062V9.20312C28.9062 9.20312 26.6172 8.8125 24.4297 8.8125C19.8594 8.8125 16.875 11.582 16.875 16.5938V21H11.7969V26.7812H16.875V40.7578C17.8945 40.918 18.9375 41 20 41C21.0625 41 22.1055 40.918 23.125 40.7578V26.7812H27.7852Z" fill="black"/>
<circle cx="20" cy="21" r="19.5" stroke="#488AEA"/>
<path d="M57 20C57 8.9543 65.9543 0 77 0C88.0457 0 97 8.9543 97 20C97 31.0457 88.0457 40 77 40C65.9543 40 57 31.0457 57 20Z" fill="#D9D9D9"/>
<path d="M76.401 16.2563L76.443 16.9483L75.7435 16.8636C73.1974 16.5387 70.973 15.4371 69.0844 13.5869L68.1611 12.6689L67.9233 13.3468C67.4197 14.858 67.7414 16.454 68.7907 17.5274C69.3503 18.1205 69.2243 18.2053 68.2591 17.8522C67.9233 17.7392 67.6295 17.6545 67.6016 17.6968C67.5036 17.7957 67.8394 19.0809 68.1052 19.5894C68.4689 20.2955 69.2104 20.9876 70.0218 21.3972L70.7072 21.722L69.8958 21.7361C69.1124 21.7361 69.0844 21.7502 69.1684 22.0468C69.4482 22.9649 70.5534 23.9394 71.7844 24.3631L72.6518 24.6597L71.8964 25.1116C70.7772 25.7613 69.4622 26.1285 68.1471 26.1567C67.5176 26.1709 67 26.2273 67 26.2697C67 26.411 68.7067 27.2019 69.7 27.5126C72.6798 28.4306 76.2191 28.0351 78.8772 26.4674C80.7658 25.3517 82.6543 23.1343 83.5357 20.9876C84.0113 19.8436 84.487 17.7533 84.487 16.7506C84.487 16.1009 84.529 16.0162 85.3124 15.2394C85.774 14.7874 86.2077 14.2931 86.2916 14.1519C86.4315 13.8835 86.4175 13.8835 85.7041 14.1236C84.515 14.5473 84.3471 14.4908 84.9346 13.8553C85.3683 13.4033 85.8859 12.5842 85.8859 12.3441C85.8859 12.3017 85.6761 12.3723 85.4383 12.4994C85.1865 12.6407 84.6269 12.8525 84.2072 12.9796L83.4518 13.2197L82.7663 12.7537C82.3885 12.4994 81.8569 12.217 81.5771 12.1322C80.8637 11.9345 79.7725 11.9627 79.129 12.1887C77.3803 12.8243 76.2751 14.4626 76.401 16.2563Z" fill="black"/>
<circle cx="77" cy="20" r="19.5" stroke="#488AEA"/>
</svg>
