<svg width="228" height="228" viewBox="0 0 228 228" fill="none" xmlns="http://www.w3.org/2000/svg">
<path fill-rule="evenodd" clip-rule="evenodd" d="M226.476 132.684C225.984 135.67 225.376 138.617 224.656 141.52L86.7027 3.28897C89.6071 2.57526 92.5553 1.97286 95.5424 1.48655L226.476 132.684ZM77.3695 6.01262C80.0603 5.10016 82.7962 4.28545 85.5731 3.57272L224.37 142.649C223.652 145.424 222.831 148.159 221.914 150.848L77.3695 6.01262ZM76.3182 6.37488C74.0144 7.18143 71.7444 8.05986 69.5108 9.00749L218.903 158.7C219.855 156.468 220.738 154.2 221.549 151.898L76.3182 6.37488ZM45.0872 23.1791C47.4275 21.4006 49.8386 19.7105 52.3155 18.1138L209.762 175.877C208.16 178.351 206.465 180.758 204.682 183.095L45.0872 23.1791ZM60.1799 13.479C57.794 14.7591 55.4589 16.1217 53.1785 17.5629L210.314 175.015C211.76 172.738 213.128 170.405 214.413 168.022L60.1799 13.479ZM61.1036 12.9888C63.5264 11.7175 66.0006 10.5307 68.5222 9.43249L218.476 159.688C217.372 162.207 216.181 164.679 214.904 167.099L61.1036 12.9888ZM44.2869 23.7928L204.067 183.894C202.169 186.336 200.174 188.699 198.088 190.976L37.1929 29.7573C39.4746 27.6758 41.8412 25.6857 44.2869 23.7928ZM192.096 197.048C193.925 195.328 195.697 193.548 197.409 191.711L36.4564 30.435C34.6164 32.1433 32.8329 33.9115 31.1089 35.7367L192.096 197.048ZM30.4251 36.4671L191.365 197.731C189.727 199.245 188.044 200.712 186.319 202.129L26.017 41.5037C27.4375 39.7817 28.9076 38.1021 30.4251 36.4671ZM161.876 217.49C164.646 216.206 167.355 214.815 169.999 213.321L14.792 57.8012C13.2928 60.4422 11.8959 63.1489 10.6069 65.9159L161.876 217.49ZM15.3077 56.9023L170.899 212.807C173.478 211.319 175.993 209.733 178.439 208.054L20.0763 49.3723C18.3922 51.815 16.801 54.3268 15.3077 56.9023ZM20.6567 48.5383C22.1608 46.3975 23.7367 44.3109 25.3808 42.2819L185.54 202.763C183.508 204.403 181.418 205.975 179.274 207.475L20.6567 48.5383ZM151.746 221.602C149.164 222.508 146.539 223.324 143.875 224.045L4.01482 83.9036C4.74162 81.2414 5.56249 78.6181 6.47364 76.0373L151.746 221.602ZM152.789 221.231L6.84707 74.9958C7.85008 72.241 8.9563 69.5358 10.161 66.8848L160.906 217.934C158.253 219.133 155.546 220.234 152.789 221.231ZM121.094 227.783C124.346 227.583 127.561 227.247 130.733 226.781L1.25296 97.0402C0.779951 100.212 0.437564 103.426 0.231444 106.677L121.094 227.783ZM1.44259 95.8146L131.959 226.593C135.619 226.014 139.222 225.261 142.758 224.342L3.71616 85.02C2.79 88.5542 2.02922 92.1553 1.44259 95.8146ZM119.756 227.857C117.849 227.952 115.93 228 114 228C112.798 228 111.601 227.981 110.408 227.944L0.0486461 117.363C0.0162897 116.246 0 115.125 0 114C0 111.992 0.0518916 109.997 0.154407 108.015L119.756 227.857ZM0.100484 118.83L108.941 227.89C104.832 227.71 100.78 227.313 96.796 226.71L1.25563 130.978C0.660548 126.992 0.271763 122.939 0.100484 118.83ZM1.51929 132.658L95.1167 226.443C89.561 225.517 84.1413 224.189 78.8884 222.49L5.43923 148.894C3.75119 143.638 2.43426 138.215 1.51929 132.658ZM6.14385 151.015L76.768 221.782C68.8465 219.046 61.3208 215.461 54.2994 211.136L16.743 173.505C12.4331 166.475 8.86378 158.942 6.14385 151.015ZM19.2903 177.473C27.5281 189.74 38.0863 200.319 50.3364 208.581L19.2903 177.473ZM227.65 104.996C227.313 100.689 226.737 96.4482 225.935 92.2883L135.936 2.1086C131.778 1.29803 127.539 0.713527 123.232 0.368389L227.65 104.996ZM121.707 0.256423C119.16 0.0863822 116.59 0 114 0C112.414 0 110.835 0.0324022 109.264 0.0965809L227.894 118.965C227.964 117.319 228 115.664 228 114C228 111.487 227.919 108.993 227.759 106.521L121.707 0.256423ZM96.7636 1.29455C100.426 0.739071 104.146 0.357865 107.914 0.159655L227.828 120.315C227.622 124.082 227.234 127.802 226.671 131.463L96.7636 1.29455ZM177.239 19.1341C189.812 27.5317 200.621 38.3621 208.994 50.9523L177.239 19.1341ZM152.881 6.80229C160.064 9.40832 166.912 12.7158 173.34 16.6421L211.478 54.857C215.391 61.2923 218.684 68.1458 221.276 75.3347L152.881 6.80229ZM150.705 6.03806C146.479 4.60162 142.141 3.40638 137.709 2.46872L225.578 90.5154C224.65 86.0806 223.463 81.7406 222.035 77.5116L150.705 6.03806Z" fill="url(#paint0_linear_65_75)" fill-opacity="0.45"/>
<defs>
<linearGradient id="paint0_linear_65_75" x1="48.725" y1="35.2688" x2="175.194" y2="217.313" gradientUnits="userSpaceOnUse">
<stop offset="0.00642869" stop-color="#ED7B50"/>
<stop offset="0.525" stop-color="#488AEA"/>
<stop offset="0.996875" stop-color="#202020"/>
<stop offset="0.9999" stop-color="#2C2C2C"/>
</linearGradient>
</defs>
</svg>
